<?xml version="1.0" encoding="UTF-8"?>
<svg id="Layer_2" data-name="Layer 2" xmlns="http://www.w3.org/2000/svg" xmlns:xlink="http://www.w3.org/1999/xlink" viewBox="0 0 316.63 316.63">
  <defs>
    <style>
      .cls-1 {
        fill: url(#linear-gradient);
      }

      .cls-2 {
        fill: #fff;
      }
    </style>
    <linearGradient id="linear-gradient" x1="15248.84" y1="641.56" x2="15447.34" y2="893.86" gradientTransform="translate(-15192.38 -612.71)" gradientUnits="userSpaceOnUse">
      <stop offset="0" stop-color="#000428"/>
      <stop offset="1" stop-color="#004e92"/>
    </linearGradient>
  </defs>
  <g id="Layer_1-2" data-name="Layer 1">
    <g>
      <rect class="cls-1" x="0" width="316.63" height="316.63" rx="99.22" ry="99.22" transform="translate(316.63 316.63) rotate(180)"/>
      <g>
        <path class="cls-2" d="M198.47,149.44c0,6.45-.86,12.3-2.6,17.52-1.74,5.23-4.34,9.68-7.7,13.36-3.37,3.67-7.55,6.53-12.46,8.51-4.86,1.95-10.46,2.95-16.77,2.97h-.19c-2.9,0-5.72-.26-8.42-.75-1.65-.31-3.26-.71-4.84-1.18-4.19-1.28-7.82-3.17-10.92-5.69-3.05-2.48-5.49-5.58-7.31-9.25-1.78-3.68-2.67-7.9-2.67-12.69,0-4.07,.66-7.67,1.93-10.8,.31-.78,.66-1.55,1.04-2.25,.27-.54,.59-1.04,.89-1.54,.35-.59,.74-1.12,1.11-1.67,0,0,0-.04,.04-.04,.39-.54,.82-1.04,1.28-1.54,.23-.31,.5-.63,.78-.9,2.13-2.13,4.63-3.75,7.47-4.83,2.32-.9,4.74-1.42,7.23-1.57,.54-.04,1.08-.06,1.63-.06,.76,0,1.48,.03,2.18,.09,3.46,.29,6.27,1.32,8.42,3.12,1.43,1.16,2.48,2.56,3.13,4.15,.35,.92,.62,1.89,.7,2.97,.04,.43,.08,.86,.08,1.28,0,1.62-.27,3.13-.78,4.64-.51,1.5-1.12,2.78-1.94,3.87-.89-.27-1.89-.43-2.97-.43-2.4,0-4.3,.66-5.69,1.94-.37,.34-.69,.71-.95,1.11-.76,1.11-1.13,2.49-1.13,4.11,0,.43,.04,.85,.07,1.27,.04,.27,.12,.55,.2,.78,0,.08,0,.16,.04,.23,.19,.65,.46,1.25,.83,1.81,.39,.61,.89,1.15,1.49,1.64,.09,.07,.18,.15,.27,.21,.73,.29,1.48,.55,2.26,.78,1.43,.39,3.02,.62,4.64,.62,2.64,0,4.94-.39,6.92-1.16,6.02-2.37,9.02-8.32,9.02-17.87,0-6.62-1.31-11.54-3.95-14.71-2.63-3.21-6.41-4.8-11.38-4.8-.31,0-.62,0-.92,.02-10.15-.74-28.25-.17-34.53,.06-1.4,.05-2.22,.09-2.22,.09-.15-.39-.31-.77-.46-1.15-1.1-2.54-2.39-4.88-3.87-7.06-1.9-2.8-4.13-5.31-6.66-7.49-1.82-1.59-3.83-3.02-5.96-4.26h56.84c3.13,0,6.25,.33,9.28,1.1,1.64,.42,3.22,.93,4.74,1.53,4.91,1.98,9.09,4.83,12.46,8.51,.62,.66,1.19,1.39,1.78,2.13,2.52,3.21,4.49,6.97,5.92,11.23,1.74,5.22,2.6,10.45,2.6,12.04Z"/>
        <path class="cls-2" d="M116,134.03c-.15-.39-.35-.77-.54-1.16-2.09-4.53-4.91-8.28-8.44-11.3-3.83-3.33-8.4-5.77-13.7-7.35-1.08-.35-2.21-.62-3.37-.89-4.33-1.01-8.98-1.51-13.89-1.51-5.88,0-11.18,.62-15.94,1.86-4.72,1.24-8.71,2.86-11.92,4.95-2.05,1.43-3.68,3.02-4.88,4.8-1.16,1.74-1.78,4.02-1.78,6.81v74.3c0,2.55,.31,4.64,.93,6.27,.62,1.59,1.55,2.86,2.79,3.79,1.24,.93,2.75,1.55,4.57,1.86,1.82,.31,3.83,.46,6.11,.46s4.68-.19,6.97-.54c2.28-.39,3.91-.7,4.95-1.01v-25.7c3.83,1.32,7.97,2.01,12.38,2.01,5.88,0,11.22-.85,16.02-2.48,4.8-1.66,8.9-4.18,12.31-7.51,3.41-3.37,6.04-7.51,7.89-12.46,1.86-4.95,2.79-10.76,2.79-17.34,0-6.93-1.08-12.89-3.25-17.88Zm-39.63,36.92c-1.63,0-3.21-.23-4.64-.62-1.43-.43-2.79-.93-4.02-1.55v-34.05c1.12-.62,2.48-1.16,4.02-1.63,1.55-.46,3.33-.7,5.26-.7,4.95,0,8.75,1.59,11.38,4.8,2.63,3.17,3.95,8.09,3.95,14.71,0,12.69-5.3,19.04-15.94,19.04Z"/>
        <path class="cls-2" d="M213.32,170.16c-1.14-2.58-2.35-5.47-3.64-8.67-1.29-3.2-2.63-6.86-4.02-10.99-1.39-4.13-2.84-8.85-4.33-14.16-1.5-5.31-3.07-11.43-4.72-18.34,1.44-1.44,3.38-2.71,5.8-3.79,2.42-1.08,5.08-1.63,7.97-1.63,3.61,0,6.6,.75,8.98,2.24,2.37,1.5,4.13,4.31,5.26,8.43l12.23,42.57h.62c1.24-3.51,2.45-7.32,3.64-11.45,1.19-4.13,2.35-8.38,3.48-12.77,1.13-4.38,2.19-8.77,3.17-13.16,.98-4.38,1.83-8.69,2.55-12.92,3.71-1.96,7.79-2.94,12.23-2.94,3.61,0,6.6,.77,8.98,2.32,2.37,1.55,3.56,4.23,3.56,8.05,0,2.79-.36,6.01-1.08,9.67-.72,3.67-1.68,7.56-2.86,11.69-1.19,4.13-2.58,8.39-4.18,12.77-1.6,4.39-3.28,8.7-5.03,12.92-1.75,4.23-3.56,8.23-5.42,12-1.86,3.77-3.67,7.15-5.42,10.14-2.89,5.05-5.57,9.18-8.05,12.38-2.48,3.2-4.85,5.7-7.12,7.51-2.27,1.8-4.54,3.04-6.81,3.71-2.27,.67-4.64,1.01-7.12,1.01-4.33,0-7.85-1.29-10.53-3.87-2.68-2.58-4.28-5.94-4.8-10.06,3.3-2.58,6.6-5.45,9.91-8.59,3.3-3.15,6.29-6.37,8.98-9.67-1.76-.51-3.64-1.72-5.65-3.64-2.01-1.91-4.21-5.49-6.58-10.76Z"/>
      </g>
    </g>
  </g>
</svg>