<svg width="149" height="62" viewBox="0 0 149 62" fill="none" xmlns="http://www.w3.org/2000/svg">
<g clip-path="url(#clip0_3_38)">
<mask id="mask0_3_38" style="mask-type:luminance" maskUnits="userSpaceOnUse" x="0" y="0" width="149" height="62">
<path d="M149 0H0V62H149V0Z" fill="white"/>
</mask>
<g mask="url(#mask0_3_38)">
<path d="M7.8928 48.7268H7.87045V22.2317H12.7288V25.1856C12.9197 24.9158 13.1311 24.6614 13.3611 24.4247C13.6051 24.1711 13.8565 23.9323 14.1154 23.7084C14.3634 23.4932 14.6226 23.2915 14.8921 23.1044C15.124 22.9419 15.3646 22.7925 15.6129 22.6568C16.6632 22.1161 17.8276 21.8397 19.0068 21.8512C21.5063 21.8512 23.4658 22.7091 24.8853 24.4247C26.2903 26.1106 26.9927 28.4081 26.9927 31.317C26.9927 34.0025 26.2903 36.1507 24.8853 37.7618C24.2273 38.559 23.3856 39.1813 22.4338 39.5743C21.423 39.965 20.353 40.1772 19.2708 40.2014C19.0716 40.2162 18.8717 40.2199 18.672 40.2126C18.4788 40.2051 18.2862 40.1864 18.0951 40.1567H17.9843L17.6514 40.0896C17.6286 40.0908 17.6059 40.087 17.5848 40.0783C17.5637 40.0696 17.541 40.0658 17.5182 40.067C17.3112 40.0072 17.1041 39.9446 16.8971 39.8791C16.6774 39.807 16.4625 39.721 16.2536 39.6218C15.9692 39.492 15.698 39.3347 15.4438 39.1521C15.1627 38.951 14.8931 38.734 14.6365 38.502C14.5845 38.4658 14.5362 38.4246 14.4921 38.3789L14.3478 38.2333C14.289 38.1888 14.2335 38.1402 14.1815 38.0877L14.0153 37.92C13.9709 37.8753 13.9265 37.8267 13.8821 37.7744C13.8377 37.7221 13.7934 37.6663 13.749 37.6068C13.6897 37.5322 13.6305 37.4613 13.5716 37.394C13.5126 37.3267 13.4535 37.2557 13.3942 37.1812C13.3793 38.0464 13.3718 38.8292 13.3718 39.5297V42.0585C13.3687 42.613 13.2673 43.1624 13.0724 43.6809C12.8716 44.2285 12.6078 44.7505 12.2864 45.236C11.9637 45.7251 11.6001 46.1856 11.1997 46.6123C10.8261 47.0135 10.4213 47.3838 9.98905 47.7198C9.62684 48.0051 9.23682 48.2525 8.82498 48.4582C8.53722 48.6148 8.21916 48.7065 7.8928 48.7268ZM14.548 27.4233C13.757 28.381 13.3459 29.6004 13.3942 30.8459C13.3813 31.5873 13.4785 32.3265 13.6824 33.039C13.8688 33.5779 14.1383 34.0839 14.4809 34.5382C14.8071 35.0039 15.2443 35.3792 15.7522 35.6295C16.2601 35.8798 16.8223 35.997 17.3869 35.9703C17.9308 35.9919 18.4722 35.8861 18.9687 35.6612C19.4652 35.4363 19.9033 35.0984 20.2486 34.674C20.9998 33.6815 21.3772 32.4522 21.3135 31.2053C21.3135 29.6396 20.966 28.4088 20.271 27.513C19.9458 27.0587 19.5144 26.6924 19.0152 26.4466C18.516 26.2008 17.9644 26.0831 17.4092 26.1039C16.8655 26.0985 16.3272 26.214 15.8326 26.4421C15.338 26.6702 14.8993 27.0053 14.5475 27.4237L14.548 27.4233ZM39.8812 39.6866V36.7773C39.5854 37.1652 39.2896 37.5233 38.9938 37.8515C38.7423 38.1348 38.4724 38.4146 38.184 38.6908C37.9426 38.9315 37.6703 39.1384 37.3743 39.3061C36.3874 39.8459 35.2804 40.1232 34.1578 40.1117C32.1466 40.1117 30.5715 39.6119 29.4326 38.6124C28.8778 38.1429 28.4359 37.5526 28.1401 36.8858C27.8442 36.2191 27.7022 35.4933 27.7247 34.7632C27.6874 33.89 27.8765 33.022 28.2733 32.245C28.6702 31.468 29.2611 30.8088 29.9876 30.3326C30.8353 29.7853 31.7694 29.3881 32.7497 29.1583C33.9888 28.8659 35.2599 28.7343 36.532 28.7666L39.2382 28.8136C39.1783 28.3785 39.0511 27.9556 38.8611 27.5604C38.7296 27.318 38.5695 27.0927 38.3843 26.8892C38.1611 26.6451 37.9111 26.4273 37.6393 26.2401L37.5061 26.1504L37.3729 26.0607C37.3136 26.0294 37.2545 25.9958 37.1955 25.9601C37.132 25.9207 37.0652 25.8871 36.9958 25.8596L36.6852 25.7699C36.5818 25.7386 36.4636 25.7087 36.3304 25.6802H36.1972C36.0935 25.6652 35.99 25.6541 35.8866 25.6469C35.7833 25.6397 35.6576 25.6359 35.5095 25.6356C35.0079 25.6355 34.507 25.6766 34.012 25.7586C33.4974 25.8453 32.9895 25.9687 32.4922 26.1278C31.9923 26.2851 31.5032 26.4757 31.0283 26.6985C30.5889 26.9038 30.1725 27.1557 29.786 27.45V23.2228C30.7177 22.7536 31.7112 22.4214 32.7362 22.2364C33.3723 22.1021 34.0009 21.9976 34.622 21.9231C35.2401 21.8487 35.862 21.8114 36.4845 21.8113H39.0599C39.8651 21.8004 40.6633 21.9644 41.4001 22.2923C42.0806 22.5973 42.695 23.0344 43.2081 23.5788C43.7086 24.1122 44.1005 24.7395 44.3615 25.4252C44.6254 26.1062 44.7609 26.831 44.761 27.5623V30.5834H44.7405L44.7629 39.6913L39.8812 39.6866ZM39.6373 31.6975C39.3579 31.787 39.0648 31.8248 38.7721 31.8093C38.5651 31.8093 38.3323 31.813 38.0737 31.8206C37.8151 31.8281 37.5305 31.8318 37.2197 31.8318C35.726 31.8766 34.6395 32.093 33.9604 32.481C33.6324 32.6581 33.3594 32.9233 33.1715 33.2471C32.9836 33.5709 32.8881 33.9409 32.8955 34.3161C32.8862 34.5989 32.9461 34.8797 33.0699 35.1337C33.1938 35.3877 33.3777 35.6069 33.6056 35.7721C34.2017 36.1698 34.911 36.3585 35.624 36.309C36.1782 36.326 36.7288 36.2136 37.2329 35.9807C37.7369 35.7478 38.1808 35.4006 38.53 34.9661C39.2306 34.1867 39.625 33.176 39.6391 32.124L39.6373 31.6975ZM64.5482 22.2096L58.2055 38.4334C57.7765 39.5375 57.3513 40.608 56.9301 41.6447C56.5377 42.6297 56.0194 43.5588 55.3884 44.4084C54.7882 45.2087 54.024 45.8689 53.1478 46.3441C52.0938 46.8665 50.9275 47.1163 49.7539 47.0712C49.3547 47.0712 48.9553 47.0823 48.5558 47.1045C48.1563 47.127 43.8381 47.1308 43.454 47.1158L43.7869 43.4009C43.9052 43.3859 47.9533 43.3746 48.079 43.3676C48.2048 43.3605 48.3417 43.3488 48.4893 43.3342C49.0889 43.3 49.6713 43.1195 50.1865 42.8082C50.5649 42.5623 50.8803 42.2294 51.1065 41.8368C51.3114 41.4708 51.4433 41.0679 51.4949 40.6509C51.5446 40.265 51.5705 39.8765 51.5726 39.4874L44.8066 22.212H51.2397L54.9647 33.6021H55.0313L58.5807 22.212L64.5482 22.2096ZM87.8187 21.7399C88.6287 21.7298 89.4311 21.8978 90.1702 22.2322C90.8542 22.5418 91.472 22.9826 91.9893 23.5299C92.4906 24.0649 92.8857 24.6916 93.1534 25.3763C93.4258 26.0635 93.565 26.7969 93.5636 27.5369V39.7105H88.0436V29.527C88.0436 29.3927 88.0252 29.1422 87.9882 28.7755C87.9455 28.387 87.8485 28.0065 87.7 27.6454C87.5403 27.2511 87.2981 26.8962 86.9899 26.605C86.6198 26.2802 86.1377 26.1153 85.648 26.1461C85.1213 26.1299 84.598 26.2365 84.1189 26.4578C83.6398 26.6791 83.2178 27.009 82.8859 27.4218C82.1834 28.2723 81.8322 29.5776 81.8322 31.3377V39.7068H76.3071V29.527C76.3071 29.3927 76.2886 29.1422 76.2517 28.7755C76.209 28.387 76.1119 28.0065 75.9635 27.6454C75.8038 27.2511 75.5615 26.8962 75.2534 26.605C74.8832 26.2802 74.4012 26.1153 73.9115 26.1461C73.3705 26.1389 72.834 26.2456 72.3362 26.4594C71.8567 26.6732 71.4346 26.9992 71.1051 27.4106C70.7297 27.8908 70.4542 28.4426 70.2954 29.0329C70.091 29.7834 69.9939 30.5595 70.0072 31.3377V39.7068H64.5501V27.5332C64.5499 26.7864 64.7127 26.0488 65.0269 25.3726C65.34 24.6856 65.7719 24.0604 66.3022 23.5262C66.8334 22.9901 67.4527 22.551 68.1326 22.2284C68.8079 21.903 69.547 21.7348 70.2954 21.7362H74.9517C75.5712 21.7274 76.1885 21.8142 76.782 21.9936C77.2779 22.1456 77.7544 22.3559 78.2017 22.6201C78.5805 22.8441 78.9275 23.1189 79.2331 23.4369C79.4751 23.6878 79.6975 23.9571 79.8985 24.2425C80.1527 23.8951 80.4511 23.5829 80.7859 23.3139C81.1634 23.0029 81.5723 22.7329 82.0059 22.5083C82.4426 22.28 82.8993 22.0927 83.3702 21.9489C83.7828 21.8158 84.2124 21.7441 84.6455 21.7362L87.8187 21.7399ZM107.163 39.687V36.7777C106.867 37.1657 106.571 37.5238 106.275 37.8519C106.024 38.1353 105.754 38.4151 105.465 38.6913C105.224 38.932 104.952 39.1389 104.656 39.3066C103.669 39.8464 102.562 40.1236 101.439 40.1121C99.428 40.1121 97.853 39.6124 96.7141 38.6128C96.1592 38.1434 95.7172 37.5531 95.4212 36.8864C95.1253 36.2196 94.9832 35.4938 95.0057 34.7637C94.9684 33.8904 95.1575 33.0224 95.5543 32.2454C95.9512 31.4684 96.542 30.8093 97.2686 30.333C98.1163 29.7857 99.0504 29.3886 100.031 29.1588C101.27 28.8664 102.541 28.7347 103.813 28.7671L106.519 28.814C106.459 28.379 106.332 27.9561 106.142 27.5609C106.011 27.3185 105.85 27.0931 105.665 26.8897C105.442 26.6456 105.192 26.4278 104.92 26.2406L104.787 26.1508L104.654 26.0611C104.595 26.0298 104.535 25.9963 104.476 25.9606C104.413 25.9212 104.346 25.8876 104.277 25.8601L103.966 25.7704C103.862 25.7391 103.744 25.7092 103.611 25.6807H103.478C103.375 25.6657 103.271 25.6545 103.168 25.6473C103.064 25.6401 102.938 25.6364 102.79 25.6361C102.289 25.636 101.788 25.6771 101.293 25.7591C100.778 25.8458 100.271 25.9691 99.7732 26.1283C99.2732 26.2856 98.7842 26.4762 98.3093 26.699C97.8699 26.9043 97.4535 27.1562 97.067 27.4505V23.2232C97.9987 22.7541 98.9922 22.4219 100.017 22.2369C100.653 22.1025 101.282 21.9981 101.903 21.9236C102.521 21.8492 103.143 21.8119 103.765 21.8118H106.343C107.148 21.8008 107.946 21.9649 108.683 22.2928C109.363 22.5978 109.978 23.0349 110.491 23.5793C110.991 24.1127 111.383 24.74 111.644 25.4256C111.908 26.1067 112.044 26.8315 112.044 27.5628V30.5838H112.023L112.046 39.6917L107.163 39.687ZM106.919 31.6984C106.639 31.7879 106.346 31.8258 106.054 31.8102C105.847 31.8102 105.614 31.814 105.355 31.8215C105.097 31.829 104.812 31.8328 104.501 31.8328C103.007 31.8776 101.921 32.0939 101.242 32.4819C100.914 32.659 100.641 32.9242 100.453 33.248C100.265 33.5719 100.169 33.9418 100.177 34.317C100.168 34.5999 100.228 34.8807 100.351 35.1346C100.475 35.3886 100.659 35.6079 100.887 35.7731C101.483 36.1708 102.192 36.3594 102.905 36.3099C103.46 36.3269 104.01 36.2146 104.514 35.9816C105.018 35.7487 105.462 35.4015 105.811 34.9671C106.512 34.1876 106.906 33.177 106.921 32.1249L106.919 31.6984ZM132.541 13.237H132.563V39.7321H127.707V36.8008C127.519 37.0671 127.311 37.3184 127.085 37.5523C126.846 37.8004 126.595 38.0356 126.331 38.2568C126.065 38.4807 125.802 38.6858 125.544 38.8721C125.317 39.0393 125.076 39.1853 124.823 39.3085C123.771 39.8459 122.608 40.1221 121.429 40.114C118.929 40.114 116.97 39.2562 115.55 37.5405C114.146 35.8249 113.443 33.5274 113.443 30.6482C113.443 27.9628 114.146 25.8145 115.55 24.2035C116.207 23.4072 117.049 22.7882 118.002 22.4022C119.015 22.0185 120.082 21.8031 121.163 21.7643C121.362 21.7495 121.562 21.7458 121.762 21.7531C121.955 21.7606 122.148 21.7793 122.339 21.809H122.361C122.393 21.8052 122.424 21.8132 122.45 21.8315C122.57 21.8359 122.688 21.8517 122.805 21.8785C122.821 21.8783 122.837 21.8822 122.851 21.8898C122.873 21.8984 122.895 21.9023 122.918 21.901C123.125 21.9608 123.332 22.0235 123.539 22.0889C123.759 22.161 123.974 22.247 124.183 22.3463C124.764 22.6535 125.308 23.029 125.802 23.4651C125.854 23.5013 125.902 23.5425 125.946 23.5882L126.091 23.7338C126.15 23.7783 126.205 23.8269 126.257 23.8794L126.423 24.0471C126.471 24.096 126.516 24.1482 126.556 24.2035C126.597 24.2587 126.642 24.311 126.69 24.3599C126.756 24.4269 126.818 24.498 126.876 24.5727C126.934 24.6474 126.996 24.7184 127.062 24.7854V19.9072C127.063 19.3489 127.165 18.7954 127.361 18.2736C127.564 17.7302 127.829 17.2121 128.149 16.7297C128.472 16.2405 128.836 15.7801 129.236 15.3535C129.61 14.9523 130.015 14.5819 130.447 14.2459C130.809 13.9606 131.199 13.7132 131.611 13.5075C131.898 13.3499 132.216 13.2573 132.543 13.2361L132.541 13.237ZM125.888 34.5396C126.676 33.5889 127.087 32.3769 127.041 31.1381C127.042 30.7493 127.02 30.3608 126.975 29.9746C126.934 29.6178 126.859 29.2657 126.753 28.923C126.676 28.6605 126.568 28.4082 126.431 28.1715C126.291 27.9254 126.139 27.6749 125.976 27.42C125.642 26.9573 125.2 26.5846 124.689 26.3348C124.179 26.0851 123.615 25.9659 123.048 25.9879C122.504 25.9695 121.964 26.0769 121.468 26.3019C120.972 26.5268 120.533 26.8633 120.186 27.2856C119.439 28.2803 119.062 29.508 119.121 30.7543C119.062 32.0736 119.428 33.3768 120.164 34.4692C120.493 34.9183 120.925 35.2794 121.424 35.5213C121.923 35.7631 122.473 35.8782 123.026 35.8567C123.57 35.8685 124.11 35.7562 124.606 35.5282C125.102 35.3002 125.54 34.9622 125.888 34.5396ZM135.449 17.5775H140.729V20.4868H135.449V17.5775ZM135.449 22.2322H140.706V39.7317H135.449V22.2322Z" fill="white"/>
<path d="M45.7476 43.4489C49.475 43.3873 52.2501 44.6701 51.215 45.7297C50.4817 46.5127 52.8657 46.6865 51.507 46.9082C51.0842 46.9777 50.4612 47.2327 46.6007 47.3422C42.7402 47.4516 36.0636 47.3422 36.0636 47.3422C35.2364 47.339 34.422 47.1355 33.6889 46.7489C32.9356 46.364 32.2349 45.8823 31.6043 45.3159C31.0167 44.7957 30.5018 44.1975 30.0738 43.5376C29.7273 43.0427 29.4926 42.4772 29.386 41.881C29.386 41.881 42.0199 43.5109 45.7476 43.4489Z" fill="white"/>
</g>
</g>
<defs>
<clipPath id="clip0_3_38">
<rect width="149" height="62" fill="white"/>
</clipPath>
</defs>
</svg>
